<svg width="323" height="85" viewBox="0 0 323 85" fill="none" xmlns="http://www.w3.org/2000/svg">
<circle cx="29.5" cy="35.5" r="29.5" fill="url(#paint0_linear)"/>
<path d="M38.9334 52.5773C41.3822 50.2524 42.6066 47.1069 42.6066 43.2777C42.6066 39.5852 41.3822 36.4398 38.9334 33.8414C36.3485 31.3797 33.2195 30.1489 29.5462 30.1489C25.737 30.1489 22.6079 31.3797 20.1591 33.8414C17.7103 36.4398 16.4858 39.5852 16.4858 43.2777C16.4858 47.1069 17.7103 50.2524 20.1591 52.5773C22.6079 55.0389 25.737 56.2697 29.5462 56.2697C33.3555 56.2697 36.4846 55.0389 38.9334 52.5773Z" fill="url(#paint1_linear)" fill-opacity="0.8"/>
<path d="M38.9334 17.6923C41.3822 20.0172 42.6067 23.1626 42.6067 26.9918C42.6067 30.6843 41.3822 33.8297 38.9334 36.4281C36.3485 38.8898 33.2195 40.1206 29.5462 40.1206C25.737 40.1206 22.6079 38.8898 20.1591 36.4281C17.7103 33.8297 16.4858 30.6843 16.4858 26.9918C16.4858 23.1626 17.7103 20.0172 20.1591 17.6923C22.6079 15.2306 25.737 13.9998 29.5462 13.9998C33.3555 13.9998 36.4846 15.2306 38.9334 17.6923Z" fill="url(#paint2_linear)"/>
<path d="M13.6923 26.6804C16.0172 24.2315 19.1626 23.0071 22.9918 23.0071C26.6843 23.0071 29.8297 24.2315 32.4281 26.6804C34.8898 29.2652 36.1206 32.3943 36.1206 36.0675C36.1206 39.8768 34.8898 43.0059 32.4281 45.4547C29.8297 47.9035 26.6843 49.1279 22.9918 49.1279C19.1626 49.1279 16.0172 47.9035 13.6923 45.4547C11.2306 43.0059 9.9998 39.8768 9.9998 36.0675C9.9998 32.2582 11.2306 29.1292 13.6923 26.6804Z" fill="url(#paint3_linear)" fill-opacity="0.6"/>
<path d="M45.4894 26.6813C43.1645 24.2325 40.019 23.0081 36.1898 23.0081C32.4973 23.0081 29.3519 24.2325 26.7535 26.6813C24.2919 29.2662 23.061 32.3953 23.061 36.0685C23.061 39.8778 24.2919 43.0068 26.7535 45.4557C29.3519 47.9045 32.4973 49.1289 36.1898 49.1289C40.019 49.1289 43.1645 47.9045 45.4894 45.4557C47.951 43.0068 49.1818 39.8778 49.1818 36.0685C49.1818 32.2592 47.951 29.1302 45.4894 26.6813Z" fill="url(#paint4_linear)" fill-opacity="0.6"/>
<path d="M195.569 79.312C193.633 79.312 192.153 78.496 191.129 76.864H191.009V79H189.569V61H191.105V68.728H191.225C191.337 68.536 191.481 68.336 191.657 68.128C191.833 67.904 192.089 67.64 192.425 67.336C192.777 67.016 193.233 66.76 193.793 66.568C194.369 66.36 194.985 66.256 195.641 66.256C197.449 66.256 198.905 66.864 200.009 68.08C201.113 69.28 201.665 70.848 201.665 72.784C201.665 74.72 201.097 76.296 199.961 77.512C198.841 78.712 197.377 79.312 195.569 79.312ZM195.521 77.92C196.833 77.92 197.921 77.456 198.785 76.528C199.649 75.584 200.081 74.336 200.081 72.784C200.081 71.248 199.649 70.008 198.785 69.064C197.937 68.12 196.857 67.648 195.545 67.648C194.217 67.648 193.129 68.128 192.281 69.088C191.449 70.032 191.033 71.264 191.033 72.784C191.033 74.256 191.441 75.48 192.257 76.456C193.089 77.432 194.177 77.92 195.521 77.92ZM202.946 84.52V83.104H204.194C205.298 83.104 206.082 82.544 206.546 81.424L207.482 79H207.026L202.298 66.568H204.05L208.01 77.512H208.13L212.162 66.568H213.938L207.818 82.216C207.226 83.752 205.994 84.52 204.122 84.52H202.946ZM219.827 79L226.211 62.2H228.443L234.779 79H233.123L231.587 74.872H222.995L221.459 79H219.827ZM223.547 73.432H231.035L227.363 63.568H227.243L223.547 73.432ZM235.756 79V77.704H238.348V62.296H235.756V61H239.884V77.704H242.452V79H235.756ZM243.784 79V77.704H246.376V62.296H243.784V61H247.912V77.704H250.48V79H243.784ZM255.35 63.832C255.126 64.072 254.838 64.192 254.486 64.192C254.134 64.192 253.846 64.072 253.622 63.832C253.398 63.592 253.286 63.296 253.286 62.944C253.286 62.608 253.398 62.32 253.622 62.08C253.862 61.84 254.15 61.72 254.486 61.72C254.838 61.72 255.126 61.84 255.35 62.08C255.59 62.32 255.71 62.608 255.71 62.944C255.71 63.296 255.59 63.592 255.35 63.832ZM253.742 79V67.84H251.342V66.568H255.278V79H253.742ZM258.965 79V66.568H260.501V68.536H260.621C260.941 67.88 261.445 67.336 262.133 66.904C262.821 66.472 263.645 66.256 264.605 66.256C266.061 66.256 267.205 66.728 268.037 67.672C268.885 68.616 269.309 69.816 269.309 71.272V79H267.773V71.416C267.773 70.296 267.445 69.4 266.789 68.728C266.149 68.04 265.309 67.696 264.269 67.696C263.197 67.696 262.301 68.064 261.581 68.8C260.861 69.536 260.501 70.464 260.501 71.584V79H258.965ZM279.826 79.312C277.41 79.312 275.394 78.488 273.778 76.84C272.178 75.176 271.378 73.096 271.378 70.6C271.378 68.12 272.186 66.048 273.802 64.384C275.418 62.72 277.434 61.888 279.85 61.888C281.658 61.888 283.242 62.384 284.602 63.376C285.978 64.352 286.954 65.616 287.53 67.168H285.754C285.274 66.016 284.506 65.096 283.45 64.408C282.41 63.72 281.21 63.376 279.85 63.376C277.898 63.376 276.274 64.064 274.978 65.44C273.682 66.8 273.034 68.52 273.034 70.6C273.034 72.696 273.682 74.424 274.978 75.784C276.274 77.144 277.898 77.824 279.85 77.824C281.226 77.824 282.442 77.48 283.498 76.792C284.57 76.104 285.322 75.184 285.754 74.032H287.53C287.002 75.584 286.042 76.856 284.65 77.848C283.258 78.824 281.65 79.312 279.826 79.312ZM301.502 77.608H302.102V79H301.07C299.95 79 299.39 78.424 299.39 77.272V76.864H299.27C298.246 78.496 296.774 79.312 294.854 79.312C293.046 79.312 291.574 78.712 290.438 77.512C289.318 76.296 288.758 74.72 288.758 72.784C288.758 70.848 289.31 69.28 290.414 68.08C291.518 66.864 292.966 66.256 294.758 66.256C295.414 66.256 296.022 66.36 296.582 66.568C297.142 66.76 297.598 67.016 297.95 67.336C298.318 67.656 298.582 67.92 298.742 68.128C298.918 68.32 299.07 68.52 299.198 68.728H299.318V66.568H300.854V77.008C300.854 77.408 301.07 77.608 301.502 77.608ZM294.878 77.92C296.222 77.92 297.31 77.432 298.142 76.456C298.974 75.464 299.39 74.24 299.39 72.784C299.39 71.264 298.966 70.032 298.118 69.088C297.27 68.128 296.182 67.648 294.854 67.648C293.542 67.648 292.462 68.12 291.614 69.064C290.766 70.008 290.342 71.248 290.342 72.784C290.342 74.336 290.766 75.584 291.614 76.528C292.478 77.456 293.566 77.92 294.878 77.92ZM304.038 79V77.704H306.63V62.296H304.038V61H308.166V77.704H310.734V79H304.038ZM312.066 79V77.704H314.658V62.296H312.066V61H316.194V77.704H318.762V79H312.066Z" fill="white"/>
<path d="M92.12 57.84C97.04 57.84 101.36 56.46 105.02 53.76C108.68 51.06 111.26 47.28 112.64 42.36H103.1C102.14 44.58 100.7 46.26 98.72 47.4C96.74 48.54 94.52 49.14 92.12 49.14C88.52 49.14 85.52 47.88 83.18 45.42C80.84 42.96 79.64 39.78 79.64 36C79.64 32.22 80.84 29.1 83.18 26.58C85.52 24.12 88.52 22.86 92.12 22.86C94.58 22.86 96.8 23.46 98.78 24.66C100.76 25.86 102.2 27.54 103.1 29.7H112.64C111.26 24.78 108.68 20.94 105.02 18.24C101.36 15.54 97.04 14.22 92.12 14.22C85.76 14.22 80.54 16.32 76.52 20.46C72.44 24.6 70.4 29.82 70.4 36C70.4 42.24 72.44 47.46 76.52 51.6C80.54 55.74 85.76 57.84 92.12 57.84ZM130.118 57.78C134.978 57.78 138.998 56.22 142.178 53.04C145.358 49.86 146.918 45.96 146.918 41.22C146.918 36.48 145.358 32.52 142.178 29.34C138.998 26.16 134.978 24.6 130.118 24.6C125.258 24.6 121.238 26.16 118.058 29.34C114.878 32.52 113.258 36.48 113.258 41.22C113.258 45.96 114.818 49.86 117.998 53.04C121.178 56.22 125.198 57.78 130.118 57.78ZM124.418 47.1C122.918 45.54 122.138 43.56 122.138 41.22C122.138 38.82 122.918 36.84 124.418 35.28C125.918 33.72 127.778 32.94 130.118 32.94C132.458 32.94 134.318 33.72 135.818 35.28C137.318 36.84 138.038 38.82 138.038 41.22C138.038 43.56 137.318 45.54 135.818 47.1C134.318 48.66 132.458 49.44 130.118 49.44C127.778 49.44 125.918 48.66 124.418 47.1ZM169.649 70.8C172.949 70.8 175.589 70.02 177.449 68.4C179.309 66.78 180.209 64.32 180.209 61.02V25.38H171.509V28.62H170.849C170.129 27.84 169.469 27.24 168.869 26.7C168.209 26.22 167.309 25.74 166.049 25.26C164.789 24.84 163.409 24.6 161.849 24.6C157.769 24.6 154.349 26.22 151.649 29.4C148.889 32.58 147.509 36.54 147.509 41.16C147.509 45.9 148.949 49.8 151.829 52.98C154.649 56.16 158.129 57.78 162.269 57.78C165.929 57.78 168.749 56.52 170.789 54.06H171.449V60.6C171.449 62.04 170.789 62.76 169.469 62.76H155.369V70.8H169.649ZM164.009 49.5C161.909 49.5 160.109 48.72 158.669 47.16C157.169 45.6 156.449 43.62 156.449 41.16C156.449 38.76 157.169 36.78 158.669 35.22C160.109 33.72 161.909 32.94 164.009 32.94C166.169 32.94 167.969 33.66 169.409 35.16C170.849 36.66 171.569 38.7 171.569 41.16C171.569 43.5 170.849 45.48 169.469 47.1C168.029 48.72 166.229 49.5 164.009 49.5ZM191.962 57V38.64C191.962 37.02 192.502 35.7 193.522 34.62C194.542 33.6 195.802 33.06 197.362 33.06C198.862 33.06 200.122 33.6 201.142 34.62C202.102 35.64 202.582 36.96 202.582 38.58V57H211.342V35.76C211.342 32.58 210.322 29.94 208.282 27.78C206.182 25.68 203.542 24.6 200.242 24.6C196.822 24.6 194.302 25.8 192.562 28.26H191.962V25.38H183.202V57H191.962ZM229.708 57.78C234.568 57.78 238.588 56.22 241.768 53.04C244.948 49.86 246.508 45.96 246.508 41.22C246.508 36.48 244.948 32.52 241.768 29.34C238.588 26.16 234.568 24.6 229.708 24.6C224.848 24.6 220.828 26.16 217.648 29.34C214.468 32.52 212.848 36.48 212.848 41.22C212.848 45.96 214.408 49.86 217.588 53.04C220.768 56.22 224.788 57.78 229.708 57.78ZM224.008 47.1C222.508 45.54 221.728 43.56 221.728 41.22C221.728 38.82 222.508 36.84 224.008 35.28C225.508 33.72 227.368 32.94 229.708 32.94C232.048 32.94 233.908 33.72 235.408 35.28C236.908 36.84 237.628 38.82 237.628 41.22C237.628 43.56 236.908 45.54 235.408 47.1C233.908 48.66 232.048 49.44 229.708 49.44C227.368 49.44 225.508 48.66 224.008 47.1ZM297.62 57L283.52 15H270.92L256.7 57H266.3L269 48.6H285.5L288.2 57H297.62ZM276.86 24H277.52L282.86 40.44H271.58L276.86 24ZM318.583 57V48.84H312.823V23.16H318.583V15H298.243V23.16H303.883V48.84H298.243V57H318.583Z" fill="white"/>
<defs>
<linearGradient id="paint0_linear" x1="29.5" y1="6" x2="29.5" y2="65" gradientUnits="userSpaceOnUse">
<stop stop-color="#F9FAFF"/>
<stop offset="1" stop-color="#FEFEFF"/>
</linearGradient>
<linearGradient id="paint1_linear" x1="29.5462" y1="30.1489" x2="29.5462" y2="56.2697" gradientUnits="userSpaceOnUse">
<stop stop-color="#4657E8"/>
<stop offset="1" stop-color="#0041C0" stop-opacity="0.53"/>
<stop offset="1" stop-color="#1060FB" stop-opacity="0.63"/>
</linearGradient>
<linearGradient id="paint2_linear" x1="29.5462" y1="40.1206" x2="29.5462" y2="13.9998" gradientUnits="userSpaceOnUse">
<stop stop-color="#324DC4"/>
<stop offset="1" stop-color="#37D4F7"/>
</linearGradient>
<linearGradient id="paint3_linear" x1="36.1206" y1="36.0675" x2="9.9998" y2="36.0675" gradientUnits="userSpaceOnUse">
<stop stop-color="#182CE2"/>
<stop offset="1" stop-color="#0041C0" stop-opacity="0.63"/>
</linearGradient>
<linearGradient id="paint4_linear" x1="23.061" y1="36.0685" x2="49.1818" y2="36.0685" gradientUnits="userSpaceOnUse">
<stop stop-color="#182CE2"/>
<stop offset="1" stop-color="#0041C0" stop-opacity="0.63"/>
</linearGradient>
</defs>
</svg>
